<svg width="79" height="32" viewBox="0 0 79 32" fill="none" xmlns="http://www.w3.org/2000/svg">
<path d="M2.18275 24.3811V31.6295H0V15.6089H10.6667L10.955 17.1327C10.9138 17.1327 10.9138 17.1327 10.8726 17.0915C10.7902 17.0915 10.749 17.0915 10.749 17.0503C10.5843 16.8032 9.96654 16.5561 8.93694 16.309C7.86615 16.0619 6.46589 15.9384 4.69498 15.9384H2.18275V23.9692H9.14286V24.3399H2.18275V24.3811Z" fill="black"/>
<path d="M18.2854 27.0992C18.2854 26.6874 18.2854 26.2755 18.2854 25.8637C18.2854 25.4107 18.2442 24.9988 18.2442 24.5458C18.0795 24.9165 17.7912 25.1636 17.3794 25.4107C16.9675 25.6166 16.5145 25.8225 16.0203 25.9872C15.5261 26.152 14.9907 26.3167 14.4553 26.4403C13.9199 26.605 13.3845 26.7697 12.9315 27.0168C12.4785 27.2639 12.1078 27.5522 11.8195 27.9229C11.5313 28.2935 11.3665 28.7878 11.3665 29.3643C11.3665 30.0233 11.5313 30.4763 11.8607 30.8058C12.1902 31.1352 12.6432 31.3 13.2198 31.3C13.7964 31.3 14.5377 31.1352 15.3202 30.7646C16.1439 30.3939 17.0499 29.8585 18.0383 29.1584C17.7912 29.4055 17.4618 29.6938 17.0499 30.0233C16.6381 30.3527 16.1439 30.641 15.6085 30.9293C15.0731 31.2176 14.5377 31.4647 14.0023 31.6295C13.4257 31.8354 12.9315 31.9177 12.4785 31.9177C12.1078 31.9177 11.696 31.8766 11.3253 31.7942C10.9547 31.7118 10.584 31.5883 10.2545 31.3823C9.92507 31.1764 9.67797 30.9293 9.47205 30.5998C9.26613 30.2704 9.14258 29.8174 9.14258 29.282C9.14258 28.8289 9.26613 28.4171 9.51323 28.0876C9.76034 27.7581 10.0898 27.4699 10.5017 27.2228C10.9135 26.9757 11.4077 26.7697 11.9431 26.605C12.4785 26.4403 13.0139 26.2755 13.5905 26.152C14.167 25.9872 14.7024 25.8637 15.2378 25.7401C15.7732 25.6166 16.2674 25.4518 16.6793 25.2871C17.1323 25.1224 17.4618 24.9165 17.75 24.7105C17.9971 24.4634 18.1619 24.2163 18.2031 23.8868C18.1207 23.3926 18.0383 22.9396 17.8736 22.4866C17.75 22.0336 17.5441 21.6629 17.297 21.3334C17.0499 21.004 16.7204 20.7569 16.3498 20.5509C15.9791 20.345 15.4849 20.3038 14.9495 20.3038C14.1258 20.345 13.5081 20.4274 13.0962 20.5921C12.6844 20.7569 12.3961 20.9628 12.1902 21.2099C11.9843 21.457 11.9431 21.7041 11.9431 21.9924C11.9431 22.2807 11.9431 22.5278 11.9431 22.7749C11.9431 23.0632 11.8607 23.2691 11.696 23.4338C11.5313 23.5986 11.3253 23.6397 11.0782 23.6397C10.8311 23.6397 10.584 23.5574 10.3369 23.3515C10.0898 23.1455 10.0074 22.8984 10.0074 22.569C10.0074 22.1159 10.2134 21.7041 10.584 21.3746C10.9547 21.0452 11.4489 20.7569 11.9843 20.5509C12.5197 20.345 13.0962 20.1803 13.6728 20.0979C14.2494 20.0155 14.7024 19.9744 15.0731 19.9744C16.2262 19.9744 17.1735 20.1391 17.8736 20.4686C18.5737 20.798 19.1091 21.2511 19.4798 21.7865C19.8504 22.3219 20.0975 22.9808 20.2211 23.7221C20.3446 24.4634 20.3858 25.2047 20.3858 26.0284V31.6706H18.3266V27.0992H18.2854Z" fill="black"/>
<path d="M24.9167 30.8057C25.1226 31.094 25.4521 31.2999 25.9051 31.4235C26.3581 31.547 26.8111 31.6294 27.3465 31.6294C27.8407 31.6294 28.3761 31.5882 28.8703 31.4646C29.4057 31.3411 29.8587 31.1763 30.2706 30.9704C30.6824 30.7645 31.0531 30.5174 31.3002 30.1879C31.5885 29.8996 31.712 29.529 31.712 29.1171C31.712 28.6229 31.5061 28.2111 31.0531 27.9228C30.6001 27.6345 30.0235 27.3874 29.3645 27.1815C28.7056 26.9756 27.9643 26.7697 27.1818 26.6049C26.3993 26.4402 25.658 26.1931 24.999 25.946C24.3401 25.6577 23.7635 25.3282 23.3105 24.8752C22.8575 24.4222 22.6515 23.8456 22.6515 23.1455C22.6515 22.4865 22.8163 21.9511 23.1457 21.5393C23.4752 21.1274 23.9282 20.798 24.4224 20.5509C24.9578 20.3038 25.4932 20.139 26.111 20.0567C26.7288 19.9743 27.2641 19.9331 27.7995 19.9331C28.0466 19.9331 28.3761 19.9743 28.788 20.0155C29.1998 20.0567 29.6116 20.1802 29.9823 20.3449C30.353 20.5097 30.7236 20.6744 31.0119 20.9215C31.3002 21.1686 31.4649 21.4981 31.4649 21.8688C31.4649 22.1159 31.3825 22.3218 31.1766 22.4865C30.9707 22.6513 30.7648 22.7336 30.5177 22.7336C30.1882 22.7336 29.9823 22.6513 29.8176 22.5277C29.6528 22.4041 29.5705 22.2394 29.4881 22.0335C29.4057 21.8688 29.3645 21.6628 29.3233 21.4569C29.2822 21.251 29.241 21.0863 29.1174 20.9627C28.9115 20.7156 28.6644 20.5097 28.4173 20.4273C28.129 20.3449 27.7995 20.2626 27.4289 20.2626C27.017 20.2626 26.6052 20.3038 26.1934 20.3861C25.7403 20.4685 25.3697 20.5921 24.999 20.7568C24.6284 20.9215 24.3401 21.1686 24.1342 21.4157C23.8871 21.704 23.8047 22.0335 23.8047 22.4041C23.8047 22.7748 23.9282 23.1043 24.2165 23.3514C24.4636 23.5985 24.8343 23.8044 25.2461 24.0103C25.658 24.1751 26.1522 24.3398 26.7288 24.4633C27.2641 24.5869 27.8407 24.7105 28.4173 24.8752C28.9939 25.0399 29.5705 25.2047 30.1058 25.3694C30.6412 25.5341 31.1354 25.7812 31.5885 26.0283C32.0003 26.2754 32.371 26.6049 32.6181 26.9756C32.8652 27.3462 33.0299 27.8404 33.0299 28.3758C33.0299 28.9936 32.8652 29.529 32.5357 29.982C32.2062 30.435 31.7944 30.7645 31.259 31.0528C30.7236 31.3411 30.147 31.547 29.4881 31.6706C28.8291 31.7941 28.129 31.8765 27.4289 31.8765C27.1818 31.8765 26.9347 31.8765 26.6052 31.8353C26.2757 31.7941 25.9463 31.7941 25.5756 31.7117C25.2049 31.6706 24.8755 31.5882 24.5048 31.4646C24.1342 31.3823 23.8459 31.2587 23.5576 31.094C23.2693 30.9292 23.0634 30.7645 22.8575 30.5586C22.6927 30.3527 22.6104 30.1056 22.6104 29.7761C22.6104 29.529 22.6927 29.3643 22.8986 29.1995C23.1046 29.0348 23.3105 28.9524 23.5576 28.9524C23.8871 28.9524 24.093 29.0348 24.2577 29.1583C24.4224 29.2819 24.5048 29.4466 24.5872 29.6525C24.6284 29.8585 24.7107 30.0232 24.7107 30.2291C24.7519 30.5174 24.8343 30.6821 24.9167 30.8057Z" fill="black"/>
<path d="M34.5947 15.6088L36.6539 14.4968V31.6706H34.5947V15.6088ZM36.901 21.3334C37.0658 21.0863 37.3129 20.8804 37.56 20.7156C37.8071 20.5509 38.0954 20.3861 38.4248 20.3038C38.7543 20.2214 39.0426 20.0979 39.3721 20.0567C39.7015 20.0155 39.9898 19.9743 40.3193 19.9743C41.2665 19.9743 42.049 20.0979 42.6668 20.3038C43.2846 20.5097 43.82 20.8392 44.1906 21.2098C44.6025 21.5805 44.8907 22.0335 45.0967 22.5277C45.3026 23.0219 45.4673 23.5573 45.5497 24.0927C45.6321 24.6693 45.6732 25.2047 45.7144 25.8224C45.7144 26.399 45.7144 26.9756 45.7144 27.511V31.6706H43.6552V27.3051C43.6552 26.8932 43.6552 26.4814 43.6552 25.9872C43.6552 25.493 43.614 24.9988 43.5729 24.4634C43.5317 23.928 43.4081 23.4338 43.2846 22.9396C43.161 22.4453 42.9551 22.0335 42.708 21.6217C42.4609 21.251 42.0902 20.9215 41.6784 20.7156C41.2665 20.4685 40.7312 20.345 40.0722 20.345C39.5368 20.345 39.125 20.3861 38.7543 20.4685C38.3837 20.5509 38.0954 20.6332 37.8483 20.7156C37.6012 20.798 37.3952 20.9215 37.2717 21.0451C37.107 21.1686 36.9834 21.251 36.901 21.3334Z" fill="black"/>
<path d="M50.3811 19.6036V31.6293H48.3219V20.7155L50.3811 19.6036Z" fill="black"/>
<path d="M47.7574 16.0611C47.4328 16.2318 46.6309 16.3076 46.6309 16.3076V16.611C46.6309 16.611 47.4328 16.6869 47.7574 16.8576C48.0629 17.0282 48.3302 17.2558 48.5212 17.5592C48.7312 17.8625 48.8649 18.2039 48.9603 18.6021C49.0558 19.0003 49.094 19.3435 49.094 19.3435H49.3613C49.3613 19.3435 49.4555 18.7991 49.495 18.6021C49.5904 18.2039 49.7432 17.8625 49.9341 17.5592C50.1251 17.2558 50.3733 17.0282 50.6979 16.8576C51.0225 16.6869 51.8245 16.611 51.8245 16.611V16.3076C51.8245 16.3076 51.0225 16.2318 50.6979 16.0611C50.3924 15.8905 50.1251 15.6629 49.9341 15.3595C49.7241 15.0561 49.5904 14.7148 49.495 14.3166C49.4512 14.0819 49.3613 13.4839 49.3613 13.4839H49.094C49.094 13.4839 49.0052 14.165 48.9603 14.3166C48.8649 14.7148 48.7121 15.0561 48.5212 15.3595C48.3302 15.6629 48.082 15.8905 47.7574 16.0611Z" fill="black"/>
<path d="M52.8584 25.946C52.8584 25.1635 52.982 24.4222 53.2291 23.6809C53.4762 22.9395 53.888 22.3218 54.4234 21.7452C54.9588 21.1686 55.6177 20.7568 56.4002 20.4273C57.1827 20.0978 58.13 19.9331 59.2007 19.9331C60.2715 19.9331 61.2188 20.0978 62.0013 20.4273C62.7838 20.7568 63.4427 21.2098 63.9781 21.7864C64.5135 22.363 64.8841 22.9807 65.1312 23.722C65.3783 24.4222 65.5019 25.2047 65.5019 25.946C65.5019 26.7285 65.3783 27.4698 65.1312 28.2111C64.8841 28.9524 64.4723 29.5702 63.9369 30.1467C63.4015 30.7233 62.7426 31.1352 61.9601 31.4646C61.1776 31.7941 60.2303 31.9588 59.2007 31.9588C58.1711 31.9588 57.1827 31.7941 56.4002 31.4646C55.6177 31.1352 54.9588 30.6821 54.4234 30.1056C53.888 29.529 53.5173 28.9112 53.2291 28.1699C52.982 27.4698 52.8584 26.7285 52.8584 25.946ZM58.13 20.4273C57.4298 20.4273 56.8532 20.592 56.4002 20.9215C55.9472 21.251 55.5765 21.6628 55.3294 22.157C55.0823 22.6513 54.9588 23.269 54.8764 23.928C54.8352 24.5869 54.8764 25.287 55 25.9872C55.1235 26.6873 55.3294 27.3462 55.6589 28.0464C55.9472 28.7053 56.3179 29.2819 56.7709 29.8173C57.2239 30.3115 57.7181 30.7645 58.2947 31.0528C58.8713 31.3823 59.489 31.547 60.1892 31.547C60.8893 31.547 61.4247 31.3823 61.8777 31.0528C62.3307 30.7233 62.6602 30.3115 62.9073 29.8173C63.1544 29.3231 63.278 28.7053 63.3603 28.0464C63.4015 27.3874 63.3603 26.6873 63.2368 25.9872C63.1132 25.287 62.8661 24.6281 62.5778 23.928C62.2895 23.269 61.9189 22.6924 61.4659 22.157C61.0128 21.6628 60.5186 21.2098 59.9421 20.9215C59.3655 20.6332 58.8301 20.4273 58.13 20.4273Z" fill="black"/>
<path d="M67.2686 20.7155L69.3278 19.6035V31.6293H67.2686V20.7155ZM69.5337 21.3332C69.6984 21.0861 69.9455 20.8802 70.1926 20.7155C70.4397 20.5507 70.728 20.386 71.0575 20.3036C71.387 20.2213 71.6752 20.0977 72.0047 20.0565C72.3342 20.0154 72.6225 19.9742 72.9519 19.9742C73.8992 19.9742 74.6817 20.0977 75.2994 20.3036C75.9172 20.5096 76.4526 20.839 76.8232 21.2097C77.2351 21.5804 77.5234 22.0334 77.7293 22.5276C77.9352 23.0218 78.1 23.5572 78.1823 24.0926C78.2647 24.6692 78.3059 25.2045 78.3471 25.8223C78.3471 26.3989 78.3471 26.9755 78.3471 27.5109V31.6704H76.2879V27.3049C76.2879 26.8931 76.2879 26.4813 76.2879 25.987C76.2879 25.4928 76.2467 24.9986 76.2055 24.4632C76.1643 23.9278 76.0408 23.4336 75.9172 22.9394C75.7936 22.4452 75.5877 22.0334 75.3406 21.6215C75.0935 21.2509 74.7229 20.9214 74.311 20.7155C73.8992 20.4684 73.3638 20.3448 72.7048 20.3448C72.1695 20.3448 71.7576 20.386 71.387 20.4684C71.0163 20.5507 70.728 20.6331 70.4809 20.7155C70.2338 20.7979 70.0279 20.9214 69.9043 21.045C69.7396 21.1685 69.616 21.2509 69.5337 21.3332Z" fill="black"/>
<path d="M22.4818 0.86499C24.1292 0.86499 25.5706 1.11209 26.8062 1.56512C28.0417 2.05933 29.0713 2.67709 29.895 3.45958C30.7186 4.24208 31.3364 5.10695 31.7482 6.13655C32.1601 7.12496 32.366 8.15457 32.366 9.22535C32.366 10.255 32.1601 11.2846 31.7482 12.273C31.3364 13.2614 30.7186 14.1674 29.895 14.9499C29.0713 15.7324 28.0417 16.3502 26.8062 16.8444C25.5706 17.3386 24.1292 17.5857 22.4818 17.5857C20.8345 17.5857 19.393 17.3386 18.1575 16.8444C16.922 16.3502 15.8924 15.7324 15.0687 14.9499C14.245 14.1674 13.6273 13.2614 13.2154 12.273C12.8036 11.2846 12.5977 10.255 12.5977 9.22535C12.5977 8.15457 12.8036 7.16615 13.2154 6.13655C13.6273 5.14813 14.245 4.24208 15.0687 3.45958C15.8924 2.67709 16.922 2.05933 18.1575 1.56512C19.393 1.11209 20.8345 0.86499 22.4818 0.86499ZM23.7173 17.0503C24.9529 17.0503 26.0237 16.8444 26.8885 16.3914C27.7534 15.9383 28.4535 15.3618 28.9889 14.6205C29.5243 13.8791 29.8538 13.0555 30.0185 12.1082C30.1832 11.161 30.1832 10.2138 30.0597 9.22535C29.895 8.23693 29.6067 7.2897 29.1125 6.34247C28.6182 5.39524 28.0417 4.57155 27.3004 3.83024C26.559 3.08893 25.6942 2.51235 24.6646 2.05933C23.635 1.6063 22.523 1.40038 21.2875 1.40038C20.0108 1.40038 18.94 1.6063 18.0751 2.05933C17.2103 2.51235 16.5101 3.08893 16.0159 3.83024C15.4805 4.57155 15.1511 5.39524 14.9863 6.34247C14.8216 7.2897 14.8216 8.23693 14.9451 9.22535C15.1099 10.2138 15.3982 11.161 15.8512 12.1082C16.3042 13.0555 16.922 13.8791 17.6633 14.6205C18.4046 15.3618 19.3107 15.9383 20.2991 16.3914C21.3287 16.8032 22.4818 17.0503 23.7173 17.0503Z" fill="black"/>
<path d="M34.5947 4.73624L36.6539 3.62427V10.4608C36.6951 11.1609 36.8187 11.8611 37.0246 12.4788C37.2305 13.0966 37.5188 13.6732 37.9306 14.1262C38.3013 14.5792 38.7543 14.9911 39.3309 15.2382C39.8663 15.5265 40.484 15.65 41.1842 15.65C42.049 15.65 42.708 15.3617 43.2434 14.8263C43.7788 14.2909 44.1082 13.5908 44.3142 12.7671C44.5201 11.9434 44.5613 11.0374 44.4789 10.0902C44.3965 9.14293 44.1494 8.23688 43.7788 7.4132C43.4081 6.58952 42.9139 5.88939 42.2961 5.354C41.6784 4.8186 40.9371 4.53032 40.1134 4.53032C39.8251 4.53032 39.4956 4.5715 39.2073 4.69505C38.919 4.8186 38.6308 4.94216 38.3425 5.10689C38.0542 5.27163 37.8071 5.47755 37.6012 5.68347C37.3541 5.88939 37.1893 6.13649 37.0658 6.34241C37.3952 5.64229 37.9306 5.06571 38.6308 4.61268C39.3721 4.15966 40.1546 3.95374 40.9783 3.95374C42.0079 3.95374 42.8727 4.11848 43.614 4.44795C44.3553 4.77742 44.9319 5.23045 45.4261 5.80702C45.8792 6.3836 46.2498 7.00136 46.4557 7.74267C46.6617 8.48398 46.7852 9.18411 46.7852 9.96661C46.7852 10.7491 46.6617 11.4492 46.4557 12.1905C46.2498 12.8907 45.8792 13.5496 45.4261 14.1262C44.9731 14.7028 44.3553 15.1558 43.614 15.4853C42.8727 15.8147 42.0079 16.0207 41.0194 16.0207C39.9487 16.0207 39.0426 15.8559 38.3425 15.5676C37.6423 15.2794 37.107 14.8675 36.6951 14.3733V21.4158H34.6359V4.73624H34.5947Z" fill="black"/>
<path d="M51.5957 7.90741C51.5957 8.6899 51.7192 9.4724 51.9663 10.2961C52.2134 11.1198 52.5841 11.8199 53.0371 12.52C53.4901 13.179 54.0667 13.7144 54.7257 14.1262C55.3846 14.538 56.1259 14.744 56.9084 14.744C57.6497 14.744 58.3087 14.5792 58.8852 14.2909C59.4618 13.9615 59.956 13.5908 60.3679 13.179C60.7797 12.7671 61.1092 12.3141 61.3151 11.9023C61.5622 11.4904 61.6858 11.1609 61.6858 10.955C61.6446 11.4904 61.4387 12.067 61.1092 12.6024C60.7797 13.1378 60.3679 13.632 59.8325 14.085C59.2971 14.538 58.7205 14.8675 58.0204 15.1558C57.3203 15.4029 56.5789 15.5676 55.7964 15.5676C54.7257 15.5676 53.7784 15.4029 52.9959 15.0734C52.2134 14.744 51.5545 14.2909 51.0191 13.7144C50.4837 13.1378 50.113 12.52 49.8248 11.7787C49.5777 11.0786 49.4541 10.2961 49.4541 9.55477C49.4541 8.52517 49.6188 7.6603 49.9483 6.91899C50.2778 6.17768 50.7308 5.55992 51.2662 5.06571C51.8016 4.5715 52.4193 4.20084 53.1195 3.99492C53.8196 3.74782 54.5197 3.62427 55.2199 3.62427C55.7553 3.62427 56.2907 3.70664 56.7849 3.87137C57.3203 4.03611 57.7733 4.28321 58.2263 4.61268C58.6793 4.94216 59.05 5.31281 59.3795 5.72465C59.7089 6.17768 59.956 6.6307 60.1619 7.16609C60.2443 7.4132 60.2031 7.61912 60.0796 7.78386C59.956 7.94859 59.7501 8.03096 59.4618 8.03096H51.5957V7.90741ZM54.808 3.91256C54.2726 3.91256 53.8196 3.99492 53.4078 4.20084C52.9959 4.40676 52.6665 4.65387 52.4194 4.98334C52.1722 5.31281 51.9663 5.72465 51.8016 6.13649C51.678 6.58952 51.5957 7.04254 51.5545 7.53675H58.3087C58.2263 7.24846 58.1027 6.91899 57.938 6.50715C57.7733 6.09531 57.5262 5.68347 57.2379 5.31281C56.9496 4.94216 56.6201 4.61268 56.2083 4.3244C55.7964 4.03611 55.3022 3.91256 54.808 3.91256Z" fill="black"/>
<path d="M62.8037 4.6127L64.8629 3.50073V15.5265H62.8037V4.6127ZM65.11 5.23046C65.2748 4.98336 65.5219 4.77744 65.769 4.6127C66.0161 4.44797 66.3044 4.28323 66.6338 4.20086C66.9633 4.07731 67.2516 3.99494 67.5811 3.95376C67.9105 3.91257 68.1988 3.87139 68.5283 3.87139C69.4755 3.87139 70.258 3.99494 70.8758 4.20086C71.4935 4.40678 72.0289 4.73625 72.3996 5.10691C72.8114 5.47757 73.0997 5.93059 73.3056 6.4248C73.5116 6.91901 73.6763 7.4544 73.7587 7.98979C73.841 8.56637 73.8822 9.10176 73.9234 9.71952C73.9234 10.2961 73.9234 10.8727 73.9234 11.4081V15.5677H71.8642V11.2021C71.8642 10.7903 71.8642 10.3785 71.8642 9.84307C71.8642 9.34887 71.823 8.85466 71.7818 8.31927C71.7406 7.78387 71.6171 7.28966 71.4935 6.79546C71.37 6.30125 71.1641 5.88941 70.917 5.47757C70.6699 5.10691 70.2992 4.77744 69.8874 4.53033C69.4755 4.28323 68.9401 4.15968 68.2812 4.15968C67.7458 4.15968 67.334 4.20086 66.9633 4.28323C66.5926 4.3656 66.3044 4.44797 66.0573 4.53033C65.8101 4.6127 65.6042 4.73625 65.4807 4.85981C65.3159 5.02454 65.1924 5.14809 65.11 5.23046Z" fill="black"/>
</svg>
